<?xml version="1.0" encoding="UTF-8"?>
<svg version="1.1" xmlns="http://www.w3.org/2000/svg" width="54" height="50">
<path d="M0 0 C17.82 0 35.64 0 54 0 C54 16.5 54 33 54 50 C36.18 50 18.36 50 0 50 C0 33.5 0 17 0 0 Z " fill="#BACBD3" transform="translate(0,0)"/>
<path d="M0 0 C1.32 0 2.64 0 4 0 C5.98 5.61 7.96 11.22 10 17 C10.99 15.02 11.98 13.04 13 11 C15.31 11 17.62 11 20 11 C20 12.32 20 13.64 20 15 C18.35 15 16.7 15 15 15 C14.86722656 15.62648438 14.73445313 16.25296875 14.59765625 16.8984375 C14.42105469 17.71570313 14.24445312 18.53296875 14.0625 19.375 C13.88847656 20.18710937 13.71445312 20.99921875 13.53515625 21.8359375 C13 24 13 24 12 26 C10.68 26 9.36 26 8 26 C6.02 20.39 4.04 14.78 2 9 C1.01 10.98 0.02 12.96 -1 15 C-3.31 15 -5.62 15 -8 15 C-8 13.68 -8 12.36 -8 11 C-6.35 11 -4.7 11 -3 11 C-2.86722656 10.37351562 -2.73445313 9.74703125 -2.59765625 9.1015625 C-2.42105469 8.28429688 -2.24445312 7.46703125 -2.0625 6.625 C-1.88847656 5.81289063 -1.71445312 5.00078125 -1.53515625 4.1640625 C-1 2 -1 2 0 0 Z " fill="#2D4B2F" transform="translate(20,13)"/>
</svg>
