<?xml version="1.0" encoding="UTF-8"?>
<svg version="1.1" xmlns="http://www.w3.org/2000/svg" width="58" height="56">
<path d="M0 0 C19.14 0 38.28 0 58 0 C58 18.48 58 36.96 58 56 C38.86 56 19.72 56 0 56 C0 37.52 0 19.04 0 0 Z " fill="#1D3D1C" transform="translate(0,0)"/>
<path d="M0 0 C0.99 0.33 1.98 0.66 3 1 C4.20057976 3.69035026 5.22808495 6.28848759 6.1875 9.0625 C6.46013672 9.82111328 6.73277344 10.57972656 7.01367188 11.36132812 C7.68615396 13.2371992 8.34442951 15.11815203 9 17 C9.99 15.02 10.98 13.04 12 11 C14.31 11 16.62 11 19 11 C19 12.32 19 13.64 19 15 C17.35 15 15.7 15 14 15 C13.86722656 15.62648438 13.73445313 16.25296875 13.59765625 16.8984375 C13.42105469 17.71570313 13.24445312 18.53296875 13.0625 19.375 C12.88847656 20.18710937 12.71445312 20.99921875 12.53515625 21.8359375 C12 24 12 24 11 26 C9.68 26 8.36 26 7 26 C5.02 20.39 3.04 14.78 1 9 C0.01 10.98 -0.98 12.96 -2 15 C-4.31 15 -6.62 15 -9 15 C-9 13.68 -9 12.36 -9 11 C-7.35 11 -5.7 11 -4 11 C-3.87882812 10.37351562 -3.75765625 9.74703125 -3.6328125 9.1015625 C-3.38144531 7.87566406 -3.38144531 7.87566406 -3.125 6.625 C-2.96257813 5.81289063 -2.80015625 5.00078125 -2.6328125 4.1640625 C-2 2 -2 2 0 0 Z " fill="#E7EAE5" transform="translate(24,15)"/>
</svg>
